<?xml version="1.0" encoding="iso-8859-1"?>
<!-- Generator: Adobe Illustrator 19.0.0, SVG Export Plug-In . SVG Version: 6.00 Build 0)  -->
<svg version="1.1" id="Layer_1" xmlns="http://www.w3.org/2000/svg" xmlns:xlink="http://www.w3.org/1999/xlink" x="0px" y="0px"
	 viewBox="0 0 512 512" style="enable-background:new 0 0 512 512;" xml:space="preserve">
<rect x="10.199" y="166.175" style="fill:#E8E8E8;" width="403.95" height="313.931"/>
<polygon style="fill:#F07057;" points="343.749,31.894 82.91,31.894 10.199,166.175 414.153,166.175 "/>
<rect x="156.772" y="318.521" style="fill:#84B3D2;" width="110.804" height="161.586"/>
<path style="fill:#F07057;" d="M402.784,300.203c-14.987,11.968-40.611,20.003-69.912,20.491c-2.94,8.713-4.558,18.035-4.558,27.741
	c0,81.231,86.743,131.515,86.743,131.515s86.744-50.283,86.744-131.514c0-9.703-1.617-19.023-4.556-27.734
	c-29.549-0.396-55.416-8.466-70.493-20.521C419.777,294.605,409.762,294.631,402.784,300.203z"/>
<path d="M46.341,337.311c-5.633,0-10.199,4.567-10.199,10.199v3.396c0,5.632,4.566,10.199,10.199,10.199s10.199-4.567,10.199-10.199
	v-3.396C56.54,341.877,51.973,337.311,46.341,337.311z"/>
<path d="M46.341,369.577c-5.633,0-10.199,4.567-10.199,10.199v67.081c0,5.632,4.566,10.199,10.199,10.199
	s10.199-4.567,10.199-10.199v-67.081C56.54,374.144,51.973,369.577,46.341,369.577z"/>
<path d="M506.909,317.442c-1.382-4.1-5.202-6.88-9.527-6.939c-26.358-0.354-50.38-7.19-64.261-18.289
	c-2.669-2.135-5.644-3.73-8.769-4.791V166.175c0-1.706-0.424-3.311-1.165-4.724c-0.002-0.004,0.001-0.008-0.001-0.012l-0.052-0.1
	c-0.007-0.013-0.013-0.025-0.02-0.039L352.782,27.159c-1.761-3.359-5.24-5.463-9.032-5.463H82.911c-3.743,0-7.186,2.051-8.968,5.342
	L1.251,161.279C0.455,162.733,0,164.4,0,166.175v313.929c0,5.632,4.566,10.199,10.199,10.199h403.953
	c0.746,0,1.47-0.085,2.169-0.237c1.336-0.167,2.647-0.596,3.85-1.293c0.936-0.543,23.203-13.571,45.635-37.078
	C496.027,420.029,512,384.322,512,348.436C512,337.883,510.288,327.455,506.909,317.442z M88.987,42.094h248.594l59.708,113.881
	H27.321L88.987,42.094z M20.398,176.374h383.554v111.543c-2.669,1.045-5.218,2.467-7.533,4.316l0,0
	c-13.774,11.001-37.594,17.828-63.719,18.264c-4.313,0.072-8.114,2.85-9.493,6.938c-3.38,10.016-5.093,20.446-5.093,31.001
	c0,35.887,15.973,71.593,46.192,103.26c6.705,7.026,13.392,13.109,19.502,18.21H277.774V318.524c0-5.632-4.566-10.199-10.199-10.199
	H156.776c-5.633,0-10.199,4.567-10.199,10.199v151.382H20.398V176.374z M166.975,469.905V328.723h90.401v141.182L166.975,469.905
	L166.975,469.905z M415.058,467.853c-17.906-12.008-76.545-56.173-76.545-119.417c0-6.022,0.707-11.993,2.106-17.827
	c27.857-1.635,52.532-9.661,68.529-22.435c3.267-2.608,7.99-2.619,11.234-0.025c15.867,12.686,41.302,20.891,69.118,22.485
	c1.396,5.827,2.101,11.79,2.101,17.804C491.602,411.685,432.953,455.852,415.058,467.853z"/>
<g>
</g>
<g>
</g>
<g>
</g>
<g>
</g>
<g>
</g>
<g>
</g>
<g>
</g>
<g>
</g>
<g>
</g>
<g>
</g>
<g>
</g>
<g>
</g>
<g>
</g>
<g>
</g>
<g>
</g>
</svg>
