<?xml version="1.0" encoding="iso-8859-1"?>
<!-- Generator: Adobe Illustrator 19.0.0, SVG Export Plug-In . SVG Version: 6.00 Build 0)  -->
<svg version="1.1" id="Layer_1" xmlns="http://www.w3.org/2000/svg" xmlns:xlink="http://www.w3.org/1999/xlink" x="0px" y="0px"
	 viewBox="0 0 512 512" style="enable-background:new 0 0 512 512;" xml:space="preserve">
<path style="fill:#FFFFFF;" d="M475.89,476.105H36.11c-13.295,0-24.073-10.779-24.073-24.073V148.012
	c0-13.295,10.779-24.074,24.073-24.074H475.89c13.295,0,24.074,10.779,24.074,24.074v304.021
	C499.963,465.326,489.185,476.105,475.89,476.105z"/>
<path style="fill:#FFDA79;" d="M159.253,51.944v71.993h37.498V73.394h118.496v50.543h37.499V51.944
	c0-8.864-7.185-16.049-16.049-16.049H175.302C166.438,35.895,159.253,43.08,159.253,51.944z"/>
<circle style="fill:#FF7876;" cx="255.998" cy="300.02" r="115.248"/>
<g>
	<path style="fill:#80D0E1;" d="M157.616,239.986H12.037v120.071h145.577C135.128,323.283,135.112,276.784,157.616,239.986z"/>
	<path style="fill:#80D0E1;" d="M354.386,239.986c10.693,17.485,16.861,38.039,16.861,60.036c0,21.997-6.169,42.549-16.861,60.036
		h145.577V239.987H354.386V239.986z"/>
</g>
<path style="fill:#58595B;" d="M475.89,111.902H364.783V51.944c0-15.486-12.6-28.086-28.086-28.086H175.302
	c-15.486,0-28.086,12.6-28.086,28.086V111.9H36.11C16.2,111.9,0,128.098,0,148.01c0,14.144,0,287.17,0,304.021
	c0,19.912,16.2,36.11,36.11,36.11H475.89c19.91,0,36.11-16.198,36.11-36.11c0-14.144,0-287.17,0-304.021
	C512,128.1,495.802,111.902,475.89,111.902z M171.289,51.944c0-2.212,1.799-4.012,4.012-4.012h161.395
	c2.213,0,4.012,1.801,4.012,4.012V111.9h-13.425V73.394c0-6.647-5.388-12.037-12.037-12.037H196.751
	c-6.649,0-12.037,5.389-12.037,12.037V111.9h-13.425V51.944z M208.789,111.902V85.43h94.423v26.47h-94.423V111.902z M36.11,135.975
	c15.295,0,421.267,0,439.779,0c6.638,0,12.037,5.399,12.037,12.037v79.938h-127.09c-50.784-73.641-158.969-73.524-209.672,0H24.073
	v-79.938C24.073,141.374,29.472,135.975,36.11,135.975z M487.926,348.021H373.905c12.425-30.522,12.44-65.446,0-95.997h114.022
	V348.021z M256.001,403.233c-56.919,0-103.211-46.309-103.211-103.211c0-56.913,46.305-103.211,103.211-103.211
	c56.926,0,103.211,46.313,103.211,103.211C359.21,356.933,312.909,403.233,256.001,403.233z M138.095,348.021H24.073v-95.997
	h114.022C126.11,281.461,125.222,316.4,138.095,348.021z M475.89,464.068H36.11c-6.638,0-12.037-5.399-12.037-12.037v-79.938h127.09
	c50.784,73.641,158.969,73.524,209.672,0h127.09v79.938C487.926,458.669,482.528,464.068,475.89,464.068z"/>
<path style="fill:#FFFFFF;" d="M282.031,365.725v-32.128c0-4.166,3.378-7.545,7.545-7.545h32.128c4.166,0,7.545-3.378,7.545-7.545
	v-36.972c0-4.166-3.378-7.545-7.545-7.545h-32.128c-4.166,0-7.545-3.378-7.545-7.545v-32.128c0-4.166-3.378-7.545-7.545-7.545
	h-36.972c-4.166,0-7.545,3.378-7.545,7.545v32.128c0,4.166-3.378,7.545-7.545,7.545h-32.128c-4.166,0-7.545,3.378-7.545,7.545
	v36.972c0,4.166,3.378,7.545,7.545,7.545h32.128c4.166,0,7.545,3.378,7.545,7.545v32.128c0,4.166,3.378,7.545,7.545,7.545h36.972
	C278.652,373.269,282.031,369.893,282.031,365.725z"/>
<g>
</g>
<g>
</g>
<g>
</g>
<g>
</g>
<g>
</g>
<g>
</g>
<g>
</g>
<g>
</g>
<g>
</g>
<g>
</g>
<g>
</g>
<g>
</g>
<g>
</g>
<g>
</g>
<g>
</g>
</svg>
